<svg xmlns="http://www.w3.org/2000/svg" xmlns:xlink="http://www.w3.org/1999/xlink" width="500" zoomAndPan="magnify" viewBox="0 0 375 374.999991" height="500" preserveAspectRatio="xMidYMid meet" version="1.0"><defs><clipPath id="f29bfed1e6"><path d="M 112 166 L 299 166 L 299 334 L 112 334 Z M 112 166 " clip-rule="nonzero"/></clipPath><clipPath id="003ba99577"><path d="M 140.785156 166.566406 L 298.6875 301.308594 L 270.804688 333.984375 L 112.902344 199.242188 Z M 140.785156 166.566406 " clip-rule="nonzero"/></clipPath><clipPath id="da08b5f14f"><path d="M 0.800781 0.558594 L 186.800781 0.558594 L 186.800781 168 L 0.800781 168 Z M 0.800781 0.558594 " clip-rule="nonzero"/></clipPath><clipPath id="080aeec043"><path d="M 28.785156 0.566406 L 186.6875 135.308594 L 158.804688 167.984375 L 0.902344 33.242188 Z M 28.785156 0.566406 " clip-rule="nonzero"/></clipPath><clipPath id="f679ff8600"><rect x="0" width="187" y="0" height="168"/></clipPath><clipPath id="d2ffec8947"><path d="M 57.964844 169.265625 L 165.914062 169.265625 L 165.914062 207.019531 L 57.964844 207.019531 Z M 57.964844 169.265625 " clip-rule="nonzero"/></clipPath><clipPath id="76901889f8"><path d="M 75.214844 169.265625 L 148.558594 169.265625 C 158.085938 169.265625 165.808594 176.988281 165.808594 186.515625 L 165.808594 189.769531 C 165.808594 199.296875 158.085938 207.019531 148.558594 207.019531 L 75.214844 207.019531 C 65.6875 207.019531 57.964844 199.296875 57.964844 189.769531 L 57.964844 186.515625 C 57.964844 176.988281 65.6875 169.265625 75.214844 169.265625 Z M 75.214844 169.265625 " clip-rule="nonzero"/></clipPath><clipPath id="da8c631ce5"><path d="M 0.964844 0.265625 L 108.839844 0.265625 L 108.839844 38.019531 L 0.964844 38.019531 Z M 0.964844 0.265625 " clip-rule="nonzero"/></clipPath><clipPath id="f3648714d0"><path d="M 18.214844 0.265625 L 91.558594 0.265625 C 101.085938 0.265625 108.808594 7.988281 108.808594 17.515625 L 108.808594 20.769531 C 108.808594 30.296875 101.085938 38.019531 91.558594 38.019531 L 18.214844 38.019531 C 8.6875 38.019531 0.964844 30.296875 0.964844 20.769531 L 0.964844 17.515625 C 0.964844 7.988281 8.6875 0.265625 18.214844 0.265625 Z M 18.214844 0.265625 " clip-rule="nonzero"/></clipPath><clipPath id="024515d3b7"><rect x="0" width="109" y="0" height="39"/></clipPath><clipPath id="456c9e0bee"><path d="M 39.042969 11.410156 L 173.160156 11.410156 L 173.160156 145.527344 L 39.042969 145.527344 Z M 39.042969 11.410156 " clip-rule="nonzero"/></clipPath><clipPath id="cca3137595"><path d="M 106.101562 11.410156 C 69.066406 11.410156 39.042969 41.433594 39.042969 78.46875 C 39.042969 115.503906 69.066406 145.527344 106.101562 145.527344 C 143.136719 145.527344 173.160156 115.503906 173.160156 78.46875 C 173.160156 41.433594 143.136719 11.410156 106.101562 11.410156 Z M 106.101562 11.410156 " clip-rule="nonzero"/></clipPath><clipPath id="56acd1cc71"><path d="M 0.0429688 0.410156 L 134.160156 0.410156 L 134.160156 134.527344 L 0.0429688 134.527344 Z M 0.0429688 0.410156 " clip-rule="nonzero"/></clipPath><clipPath id="aac3efa11a"><path d="M 67.101562 0.410156 C 30.066406 0.410156 0.0429688 30.433594 0.0429688 67.46875 C 0.0429688 104.503906 30.066406 134.527344 67.101562 134.527344 C 104.136719 134.527344 134.160156 104.503906 134.160156 67.46875 C 134.160156 30.433594 104.136719 0.410156 67.101562 0.410156 Z M 67.101562 0.410156 " clip-rule="nonzero"/></clipPath><clipPath id="08c85606af"><rect x="0" width="135" y="0" height="135"/></clipPath><clipPath id="fdcf56199c"><path d="M 39.042969 232.90625 L 173.160156 232.90625 L 173.160156 367.027344 L 39.042969 367.027344 Z M 39.042969 232.90625 " clip-rule="nonzero"/></clipPath><clipPath id="1d59418f61"><path d="M 106.101562 232.90625 C 69.066406 232.90625 39.042969 262.929688 39.042969 299.96875 C 39.042969 337.003906 69.066406 367.027344 106.101562 367.027344 C 143.136719 367.027344 173.160156 337.003906 173.160156 299.96875 C 173.160156 262.929688 143.136719 232.90625 106.101562 232.90625 Z M 106.101562 232.90625 " clip-rule="nonzero"/></clipPath><clipPath id="155f742a62"><path d="M 0.0429688 0.90625 L 134.160156 0.90625 L 134.160156 135.027344 L 0.0429688 135.027344 Z M 0.0429688 0.90625 " clip-rule="nonzero"/></clipPath><clipPath id="b9db7482c2"><path d="M 67.101562 0.90625 C 30.066406 0.90625 0.0429688 30.929688 0.0429688 67.96875 C 0.0429688 105.003906 30.066406 135.027344 67.101562 135.027344 C 104.136719 135.027344 134.160156 105.003906 134.160156 67.96875 C 134.160156 30.929688 104.136719 0.90625 67.101562 0.90625 Z M 67.101562 0.90625 " clip-rule="nonzero"/></clipPath><clipPath id="a922f42f0d"><rect x="0" width="135" y="0" height="136"/></clipPath><clipPath id="f671b83228"><path d="M 236.464844 11.410156 L 338.726562 11.410156 L 338.726562 113.671875 L 236.464844 113.671875 Z M 236.464844 11.410156 " clip-rule="nonzero"/></clipPath><clipPath id="28298b4155"><path d="M 287.59375 11.410156 C 259.355469 11.410156 236.464844 34.300781 236.464844 62.542969 C 236.464844 90.78125 259.355469 113.671875 287.59375 113.671875 C 315.835938 113.671875 338.726562 90.78125 338.726562 62.542969 C 338.726562 34.300781 315.835938 11.410156 287.59375 11.410156 Z M 287.59375 11.410156 " clip-rule="nonzero"/></clipPath><clipPath id="716afdf2bc"><path d="M 0.464844 0.410156 L 102.726562 0.410156 L 102.726562 102.671875 L 0.464844 102.671875 Z M 0.464844 0.410156 " clip-rule="nonzero"/></clipPath><clipPath id="16ae787bfd"><path d="M 51.59375 0.410156 C 23.355469 0.410156 0.464844 23.300781 0.464844 51.542969 C 0.464844 79.78125 23.355469 102.671875 51.59375 102.671875 C 79.835938 102.671875 102.726562 79.78125 102.726562 51.542969 C 102.726562 23.300781 79.835938 0.410156 51.59375 0.410156 Z M 51.59375 0.410156 " clip-rule="nonzero"/></clipPath><clipPath id="17618c19c0"><rect x="0" width="103" y="0" height="103"/></clipPath><clipPath id="c464a7aa81"><path d="M 236.464844 264.839844 L 338.726562 264.839844 L 338.726562 367.105469 L 236.464844 367.105469 Z M 236.464844 264.839844 " clip-rule="nonzero"/></clipPath><clipPath id="7ee908767d"><path d="M 287.59375 264.839844 C 259.355469 264.839844 236.464844 287.734375 236.464844 315.972656 C 236.464844 344.214844 259.355469 367.105469 287.59375 367.105469 C 315.835938 367.105469 338.726562 344.214844 338.726562 315.972656 C 338.726562 287.734375 315.835938 264.839844 287.59375 264.839844 Z M 287.59375 264.839844 " clip-rule="nonzero"/></clipPath><clipPath id="782f68e9d9"><path d="M 0.464844 0.839844 L 102.726562 0.839844 L 102.726562 103.105469 L 0.464844 103.105469 Z M 0.464844 0.839844 " clip-rule="nonzero"/></clipPath><clipPath id="d88bcd09ee"><path d="M 51.59375 0.839844 C 23.355469 0.839844 0.464844 23.734375 0.464844 51.972656 C 0.464844 80.214844 23.355469 103.105469 51.59375 103.105469 C 79.835938 103.105469 102.726562 80.214844 102.726562 51.972656 C 102.726562 23.734375 79.835938 0.839844 51.59375 0.839844 Z M 51.59375 0.839844 " clip-rule="nonzero"/></clipPath><clipPath id="39028ae89e"><rect x="0" width="103" y="0" height="104"/></clipPath><clipPath id="a741e781e7"><path d="M 112 43 L 299 43 L 299 210 L 112 210 Z M 112 43 " clip-rule="nonzero"/></clipPath><clipPath id="844e71fffa"><path d="M 112.328125 176.855469 L 270.996094 43.011719 L 298.695312 75.847656 L 140.023438 209.691406 Z M 112.328125 176.855469 " clip-rule="nonzero"/></clipPath><clipPath id="f9eb60a319"><path d="M 0.320312 0 L 186.800781 0 L 186.800781 166.761719 L 0.320312 166.761719 Z M 0.320312 0 " clip-rule="nonzero"/></clipPath><clipPath id="a430140545"><path d="M 0.328125 133.855469 L 158.996094 0.0117188 L 186.695312 32.847656 L 28.023438 166.691406 Z M 0.328125 133.855469 " clip-rule="nonzero"/></clipPath><clipPath id="f7e2c031ef"><rect x="0" width="187" y="0" height="167"/></clipPath><clipPath id="2e653ccfd9"><path d="M 113 55 L 285 55 L 285 209 L 113 209 Z M 113 55 " clip-rule="nonzero"/></clipPath><clipPath id="6910f00c93"><path d="M 106.101562 182.933594 L 264.21875 48.203125 L 292.082031 80.902344 L 133.960938 215.628906 Z M 106.101562 182.933594 " clip-rule="nonzero"/></clipPath><clipPath id="8c7b3f5c49"><path d="M 119.234375 171.746094 L 250.972656 59.492188 C 258.226562 53.3125 269.113281 54.183594 275.292969 61.433594 L 280.777344 67.871094 C 286.957031 75.121094 286.085938 86.007812 278.835938 92.1875 L 147.09375 204.441406 C 139.839844 210.621094 128.953125 209.75 122.773438 202.5 L 117.289062 196.0625 C 111.113281 188.8125 111.980469 177.925781 119.234375 171.746094 Z M 119.234375 171.746094 " clip-rule="nonzero"/></clipPath><clipPath id="9c4e74d5d7"><path d="M 0 0 L 172 0 L 172 154 L 0 154 Z M 0 0 " clip-rule="nonzero"/></clipPath><clipPath id="e90add6320"><path d="M -6.898438 127.933594 L 151.21875 -6.796875 L 179.082031 25.902344 L 20.960938 160.628906 Z M -6.898438 127.933594 " clip-rule="nonzero"/></clipPath><clipPath id="afba2dde6a"><path d="M 6.234375 116.746094 L 137.972656 4.492188 C 145.226562 -1.6875 156.113281 -0.816406 162.292969 6.433594 L 167.777344 12.871094 C 173.957031 20.121094 173.085938 31.007812 165.835938 37.1875 L 34.09375 149.441406 C 26.839844 155.621094 15.953125 154.75 9.773438 147.5 L 4.289062 141.0625 C -1.886719 133.8125 -1.019531 122.925781 6.234375 116.746094 Z M 6.234375 116.746094 " clip-rule="nonzero"/></clipPath><clipPath id="49ab9921a3"><rect x="0" width="172" y="0" height="154"/></clipPath><clipPath id="e5c95c14ba"><path d="M 113 168 L 287 168 L 287 320 L 113 320 Z M 113 168 " clip-rule="nonzero"/></clipPath><clipPath id="a33604612a"><path d="M 133.574219 161.113281 L 293.257812 293.984375 L 265.78125 327.003906 L 106.097656 194.136719 Z M 133.574219 161.113281 " clip-rule="nonzero"/></clipPath><clipPath id="6b9ac92384"><path d="M 146.832031 172.148438 L 279.878906 282.851562 C 287.203125 288.945312 288.199219 299.824219 282.105469 307.148438 L 276.699219 313.648438 C 270.605469 320.96875 259.726562 321.96875 252.402344 315.875 L 119.359375 205.167969 C 112.035156 199.074219 111.039062 188.199219 117.132812 180.875 L 122.539062 174.375 C 128.632812 167.050781 139.511719 166.054688 146.832031 172.148438 Z M 146.832031 172.148438 " clip-rule="nonzero"/></clipPath><clipPath id="e060dd22b4"><path d="M 0 0 L 174 0 L 174 152 L 0 152 Z M 0 0 " clip-rule="nonzero"/></clipPath><clipPath id="e95807d80c"><path d="M 20.574219 -6.886719 L 180.257812 125.984375 L 152.78125 159.003906 L -6.902344 26.136719 Z M 20.574219 -6.886719 " clip-rule="nonzero"/></clipPath><clipPath id="707c36f0db"><path d="M 33.832031 4.148438 L 166.878906 114.851562 C 174.203125 120.945312 175.199219 131.824219 169.105469 139.148438 L 163.699219 145.648438 C 157.605469 152.96875 146.726562 153.96875 139.402344 147.875 L 6.359375 37.167969 C -0.964844 31.074219 -1.960938 20.199219 4.132812 12.875 L 9.539062 6.375 C 15.632812 -0.949219 26.511719 -1.945312 33.832031 4.148438 Z M 33.832031 4.148438 " clip-rule="nonzero"/></clipPath><clipPath id="51d53d56e9"><rect x="0" width="174" y="0" height="152"/></clipPath></defs><g clip-path="url(#f29bfed1e6)"><g clip-path="url(#003ba99577)"><g transform="matrix(1, 0, 0, 1, 112, 166)"><g clip-path="url(#f679ff8600)"><g clip-path="url(#da08b5f14f)"><g clip-path="url(#080aeec043)"><path fill="#0072de" d="M 28.785156 0.566406 L 186.675781 135.296875 L 158.792969 167.972656 L 0.902344 33.242188 Z M 28.785156 0.566406 " fill-opacity="1" fill-rule="nonzero"/></g></g></g></g></g></g><g clip-path="url(#d2ffec8947)"><g clip-path="url(#76901889f8)"><g transform="matrix(1, 0, 0, 1, 57, 169)"><g clip-path="url(#024515d3b7)"><g clip-path="url(#da8c631ce5)"><g clip-path="url(#f3648714d0)"><path fill="#0072de" d="M 0.964844 0.265625 L 108.765625 0.265625 L 108.765625 38.019531 L 0.964844 38.019531 Z M 0.964844 0.265625 " fill-opacity="1" fill-rule="nonzero"/></g></g></g></g></g></g><g clip-path="url(#456c9e0bee)"><g clip-path="url(#cca3137595)"><g transform="matrix(1, 0, 0, 1, 39, 11)"><g clip-path="url(#08c85606af)"><g clip-path="url(#56acd1cc71)"><g clip-path="url(#aac3efa11a)"><path fill="#0072de" d="M 0.0429688 0.410156 L 134.160156 0.410156 L 134.160156 134.527344 L 0.0429688 134.527344 Z M 0.0429688 0.410156 " fill-opacity="1" fill-rule="nonzero"/></g></g></g></g></g></g><g clip-path="url(#fdcf56199c)"><g clip-path="url(#1d59418f61)"><g transform="matrix(1, 0, 0, 1, 39, 232)"><g clip-path="url(#a922f42f0d)"><g clip-path="url(#155f742a62)"><g clip-path="url(#b9db7482c2)"><path fill="#0072de" d="M 0.0429688 0.90625 L 134.160156 0.90625 L 134.160156 135.027344 L 0.0429688 135.027344 Z M 0.0429688 0.90625 " fill-opacity="1" fill-rule="nonzero"/></g></g></g></g></g></g><g clip-path="url(#f671b83228)"><g clip-path="url(#28298b4155)"><g transform="matrix(1, 0, 0, 1, 236, 11)"><g clip-path="url(#17618c19c0)"><g clip-path="url(#716afdf2bc)"><g clip-path="url(#16ae787bfd)"><path fill="#0072de" d="M 0.464844 0.410156 L 102.726562 0.410156 L 102.726562 102.671875 L 0.464844 102.671875 Z M 0.464844 0.410156 " fill-opacity="1" fill-rule="nonzero"/></g></g></g></g></g></g><g clip-path="url(#c464a7aa81)"><g clip-path="url(#7ee908767d)"><g transform="matrix(1, 0, 0, 1, 236, 264)"><g clip-path="url(#39028ae89e)"><g clip-path="url(#782f68e9d9)"><g clip-path="url(#d88bcd09ee)"><path fill="#0072de" d="M 0.464844 0.839844 L 102.726562 0.839844 L 102.726562 103.105469 L 0.464844 103.105469 Z M 0.464844 0.839844 " fill-opacity="1" fill-rule="nonzero"/></g></g></g></g></g></g><g clip-path="url(#a741e781e7)"><g clip-path="url(#844e71fffa)"><g transform="matrix(1, 0, 0, 1, 112, 43)"><g clip-path="url(#f7e2c031ef)"><g clip-path="url(#f9eb60a319)"><g clip-path="url(#a430140545)"><path fill="#0072de" d="M 0.328125 133.855469 L 158.984375 0.0234375 L 186.683594 32.855469 L 28.023438 166.691406 Z M 0.328125 133.855469 " fill-opacity="1" fill-rule="nonzero"/></g></g></g></g></g></g><g clip-path="url(#2e653ccfd9)"><g clip-path="url(#6910f00c93)"><g clip-path="url(#8c7b3f5c49)"><g transform="matrix(1, 0, 0, 1, 113, 55)"><g clip-path="url(#49ab9921a3)"><g clip-path="url(#9c4e74d5d7)"><g clip-path="url(#e90add6320)"><g clip-path="url(#afba2dde6a)"><path fill="#0072de" d="M -6.898438 127.933594 L 151.09375 -6.6875 L 178.953125 26.011719 L 20.960938 160.628906 Z M -6.898438 127.933594 " fill-opacity="1" fill-rule="nonzero"/></g></g></g></g></g></g></g></g><g clip-path="url(#e5c95c14ba)"><g clip-path="url(#a33604612a)"><g clip-path="url(#6b9ac92384)"><g transform="matrix(1, 0, 0, 1, 113, 168)"><g clip-path="url(#51d53d56e9)"><g clip-path="url(#e060dd22b4)"><g clip-path="url(#e95807d80c)"><g clip-path="url(#707c36f0db)"><path fill="#0072de" d="M 20.574219 -6.886719 L 180.128906 125.875 L 152.652344 158.898438 L -6.902344 26.136719 Z M 20.574219 -6.886719 " fill-opacity="1" fill-rule="nonzero"/></g></g></g></g></g></g></g></g></svg>